<svg width="136" height="42" viewBox="0 0 136 42" fill="none" xmlns="http://www.w3.org/2000/svg">
    <g filter="url(#filter0_d_1911_49543)">
        <path
            d="M124.92 0H10.4152C10.05 0 9.69176 0 9.33692 0C9.03031 0 8.72715 0.0103346 8.42055 0.0103346C7.76944 0.0310047 7.108 0.0723443 6.44656 0.19292C5.78512 0.30316 5.17535 0.499527 4.57247 0.802688C3.98338 1.10929 3.44251 1.50547 2.97399 1.97399C2.49513 2.44251 2.10929 2.97993 1.80269 3.57247C1.49608 4.1719 1.30316 4.79545 1.19292 5.45689C1.07234 6.108 1.031 6.76944 1.01033 7.43089C1.01033 7.72716 1 8.03031 1 8.33692V9.41521V30.5848V31.6631C1 31.9697 1.01033 32.2728 1.01033 32.5794C1.031 33.2409 1.07234 33.9023 1.19292 34.5534C1.30316 35.2149 1.49953 35.835 1.80269 36.4379C2.10929 37.0166 2.49513 37.5678 2.97399 38.026C3.44251 38.4945 3.97993 38.8907 4.57247 39.187C5.1719 39.5039 5.78512 39.6968 6.44656 39.8174C7.108 39.9277 7.76944 39.969 8.42055 39.9897C8.72715 39.9897 9.03031 40 9.33692 40C9.69176 40 10.05 40 10.4152 40H124.92C125.275 40 125.634 40 125.988 40C126.285 40 126.598 39.9897 126.894 39.9897C127.556 39.969 128.217 39.9277 128.868 39.8174C129.53 39.6968 130.15 39.5005 130.753 39.187C131.342 38.8907 131.883 38.4945 132.351 38.026C132.82 37.5678 133.216 37.0201 133.523 36.4379C133.829 35.8384 134.022 35.2149 134.132 34.5534C134.253 33.9023 134.294 33.2409 134.315 32.5794C134.315 32.2728 134.315 31.9697 134.315 31.6631C134.325 31.3082 134.325 30.95 134.325 30.5848V9.41521C134.325 9.05004 134.325 8.69176 134.315 8.33692C134.315 8.03031 134.315 7.72716 134.315 7.43089C134.294 6.76944 134.253 6.108 134.132 5.45689C134.022 4.79545 133.826 4.17535 133.523 3.57247C133.216 2.98338 132.82 2.44251 132.351 1.97399C131.883 1.50547 131.345 1.10929 130.753 0.802688C130.153 0.496082 129.53 0.30316 128.868 0.19292C128.217 0.0723443 127.556 0.0310047 126.894 0.0103346C126.598 0.0103346 126.285 0 125.988 0C125.634 0 125.275 0 124.92 0Z"
            fill="#E8E8E8"></path>
    </g>
    <path
        d="M9.33721 39.1315C9.03061 39.1315 8.74812 39.1315 8.44151 39.1211C7.89031 39.1108 7.2392 39.0798 6.59843 38.9592C5.999 38.8559 5.45813 38.6733 4.95861 38.4183C4.44875 38.1634 3.98022 37.8189 3.58405 37.4193C3.17754 37.0128 2.83993 36.5546 2.57811 36.0344C2.32318 35.5349 2.15093 35.0078 2.03724 34.3946C1.91667 33.7331 1.88566 33.0614 1.87532 32.5515C1.86499 32.3379 1.86499 31.6455 1.86499 31.6455V8.32965C1.86499 8.32965 1.87532 7.64753 1.87532 7.44428C1.88566 6.92408 1.91667 6.25231 2.03724 5.6012C2.14748 4.99143 2.32318 4.4609 2.57811 3.95104C2.84337 3.44118 3.17754 2.97265 3.57716 2.57648C3.98367 2.16997 4.45219 1.82202 4.96205 1.57054C5.47191 1.30527 6.00934 1.13302 6.60188 1.02967C7.26332 0.909097 7.93509 0.878092 8.45529 0.867756L9.34066 0.857422H125.978L126.884 0.867756C127.394 0.878092 128.066 0.909097 128.717 1.02967C129.317 1.13302 129.857 1.30527 130.367 1.57054C130.877 1.82547 131.346 2.16997 131.742 2.57648C132.148 2.97265 132.486 3.44118 132.758 3.96137C133.013 4.4609 133.185 4.99832 133.278 5.59086C133.399 6.21096 133.43 6.85173 133.451 7.45461C133.461 7.73021 133.461 8.03338 133.461 8.32965C133.461 8.69482 133.461 9.05309 133.461 9.40793V30.5775C133.461 30.9323 133.461 31.2906 133.461 31.6455C133.461 31.9624 133.461 32.2552 133.451 32.5618C133.43 33.1406 133.399 33.7848 133.289 34.3842C133.185 34.994 133.013 35.5245 132.748 36.0344C132.482 36.5546 132.148 37.0128 131.749 37.409C131.342 37.8155 130.874 38.1531 130.364 38.4149C129.854 38.6802 129.327 38.8421 128.714 38.9558C128.083 39.0763 127.432 39.1073 126.871 39.1177C126.585 39.128 126.281 39.128 125.985 39.128H124.917H9.33721V39.1315Z"
        fill="white"></path>
    <path
        d="M46.4123 25.3732L44.1937 19.3789L41.9854 25.3732H46.4123ZM38.6782 29.8207L43.2773 17.7701H45.1204L49.7195 29.8207H48.0211L46.9221 26.7271H41.4962L40.3973 29.8207H38.6782ZM52.8441 28.4668V33.2588H51.3593V20.781H52.8441V22.1452C53.1576 21.6078 53.5503 21.2117 54.0257 20.9533C54.508 20.688 55.0765 20.5571 55.7345 20.5571C56.8334 20.5571 57.7257 20.9946 58.4112 21.8696C59.1037 22.7378 59.4482 23.885 59.4482 25.3112C59.4482 26.7306 59.1037 27.8743 58.4112 28.7528C57.7257 29.6209 56.8334 30.055 55.7345 30.055C55.0765 30.055 54.508 29.9275 54.0257 29.6691C53.5503 29.4039 53.1576 29.0008 52.8441 28.4668ZM57.9014 25.3112C57.9014 24.2191 57.674 23.3613 57.2193 22.7378C56.7783 22.1142 56.1651 21.8007 55.3762 21.8007C54.5907 21.8007 53.9672 22.1142 53.5124 22.7378C53.0646 23.3613 52.8407 24.2191 52.8407 25.3112C52.8407 26.4033 53.0646 27.2611 53.5124 27.8846C53.9672 28.5013 54.5873 28.8113 55.3762 28.8113C56.1616 28.8113 56.7783 28.5013 57.2193 27.8846C57.674 27.2611 57.9014 26.4033 57.9014 25.3112ZM63.3479 28.4668V33.2588H61.8528V20.781H63.3479V22.1452C63.6614 21.6078 64.0507 21.2117 64.5192 20.9533C65.0015 20.688 65.5734 20.5571 66.2383 20.5571C67.3304 20.5571 68.2192 20.9946 68.9047 21.8696C69.5972 22.7378 69.9417 23.885 69.9417 25.3112C69.9417 26.7306 69.5972 27.8743 68.9047 28.7528C68.2192 29.6209 67.3304 30.055 66.2383 30.055C65.5734 30.055 65.0015 29.9275 64.5192 29.6691C64.0507 29.4039 63.658 29.0008 63.3479 28.4668ZM68.3949 25.3112C68.3949 24.2191 68.1675 23.3613 67.7128 22.7378C67.2718 22.1142 66.6586 21.8007 65.8697 21.8007C65.0842 21.8007 64.4607 22.1142 64.0059 22.7378C63.565 23.3613 63.3445 24.2191 63.3445 25.3112C63.3445 26.4033 63.565 27.2611 64.0059 27.8846C64.4607 28.5013 65.0808 28.8113 65.8697 28.8113C66.6551 28.8113 67.2718 28.5013 67.7128 27.8846C68.1675 27.2611 68.3949 26.4033 68.3949 25.3112ZM80.6281 28.1017V24.8668H77.972V23.5233H82.2472V28.7045C81.6168 29.1524 80.9209 29.49 80.1596 29.7208C79.4051 29.9448 78.599 30.055 77.7377 30.055C75.8499 30.055 74.3754 29.5038 73.3109 28.4048C72.2533 27.3059 71.7227 25.7728 71.7227 23.8057C71.7227 21.8386 72.2533 20.3056 73.3109 19.2067C74.3754 18.1008 75.8533 17.5462 77.7377 17.5462C78.5232 17.5462 79.2673 17.6461 79.9667 17.8424C80.6798 18.0319 81.3343 18.3178 81.9303 18.6968V20.4365C81.3274 19.9198 80.6867 19.5339 80.008 19.2756C79.3293 19.0172 78.6162 18.8897 77.8721 18.8897C76.4011 18.8897 75.2918 19.2997 74.5442 20.1196C73.8104 20.9464 73.4453 22.1763 73.4453 23.8023C73.4453 25.4283 73.8104 26.6548 74.5442 27.4747C75.2918 28.2946 76.4011 28.7045 77.8721 28.7045C78.4474 28.7045 78.9642 28.6563 79.4189 28.5633C79.8667 28.4668 80.2698 28.3118 80.6281 28.1017ZM90.6944 25.2699H89.2199C88.0176 25.2699 87.1874 25.4077 86.7258 25.6867C86.2641 25.9589 86.0333 26.4274 86.0333 27.0923C86.0333 27.6228 86.2056 28.0431 86.5535 28.3532C86.898 28.6598 87.37 28.8113 87.9694 28.8113C88.7962 28.8113 89.4576 28.5185 89.9537 27.9363C90.4498 27.3541 90.6978 26.5755 90.6978 25.604V25.2699H90.6944ZM92.1792 24.6601V29.8207H90.6944V28.4462C90.3568 28.9974 89.9331 29.4039 89.4335 29.6691C88.9237 29.9275 88.3036 30.055 87.5698 30.055C86.6465 30.055 85.9093 29.7966 85.3615 29.2799C84.8172 28.7562 84.5485 28.0569 84.5485 27.1819C84.5485 26.1725 84.8861 25.4042 85.5648 24.8806C86.2503 24.3638 87.2666 24.1055 88.6171 24.1055H90.6944V23.9642C90.6944 23.2787 90.4705 22.7481 90.0226 22.3761C89.5748 22.004 88.9443 21.818 88.1313 21.818C87.6146 21.818 87.115 21.88 86.6258 22.0006C86.1367 22.1211 85.6647 22.3106 85.21 22.5586V21.1841C85.7543 20.9739 86.2813 20.8189 86.7981 20.7156C87.308 20.6053 87.8006 20.5537 88.2829 20.5537C89.592 20.5537 90.5704 20.8913 91.2146 21.5699C91.8588 22.2555 92.1792 23.2821 92.1792 24.6601ZM95.2418 29.8207V17.2637H96.7266V29.8207H95.2418ZM99.834 29.8207V17.2637H101.319V29.8207H99.834ZM112.115 24.9254V25.6592H105.287C105.349 26.6754 105.653 27.4575 106.204 27.9983C106.758 28.5289 107.53 28.7907 108.515 28.7907C109.084 28.7907 109.635 28.7218 110.166 28.5874C110.71 28.4462 111.24 28.236 111.764 27.957V29.3625C111.234 29.5865 110.689 29.7587 110.124 29.8827C109.57 29.9964 109.001 30.055 108.426 30.055C106.986 30.055 105.846 29.6347 104.995 28.7941C104.154 27.9604 103.734 26.827 103.734 25.3939C103.734 23.9091 104.133 22.7343 104.936 21.8731C105.735 20.9981 106.817 20.5605 108.171 20.5605C109.387 20.5605 110.345 20.9533 111.051 21.7422C111.761 22.5208 112.115 23.5818 112.115 24.9254ZM105.329 24.4982H110.631C110.617 23.6852 110.386 23.0341 109.938 22.5449C109.497 22.0626 108.912 21.8214 108.178 21.8214C107.351 21.8214 106.686 22.0557 106.183 22.5242C105.687 22.9927 105.405 23.6507 105.329 24.4982ZM119.729 20.6398L119.739 22.1659C119.57 22.0695 119.388 22.0006 119.188 21.9523C118.988 21.9041 118.778 21.88 118.547 21.88C117.707 21.88 117.059 22.1556 116.604 22.7033C116.156 23.2477 115.933 24.0297 115.933 25.0528V29.8173H114.448V20.781H115.933V22.1866C116.246 21.6354 116.653 21.2289 117.156 20.9636C117.658 20.6915 118.265 20.5571 118.978 20.5571C119.081 20.5571 119.195 20.5674 119.322 20.5881C119.443 20.595 119.581 20.6122 119.729 20.6398ZM129.03 20.781L125.062 30.6544C124.642 31.7327 124.232 32.4389 123.832 32.7697C123.432 33.0969 122.898 33.2588 122.233 33.2588H121.041V32.0186H121.917C122.323 32.0186 122.643 31.9187 122.874 31.7224C123.098 31.5329 123.346 31.0747 123.618 30.3478L123.894 29.676L120.228 20.781H121.806L124.635 27.8433L127.453 20.781H129.03V20.781Z"
        fill="#585757"></path>
    <path
        d="M38.585 13.5355V7.31727H42.5123V8.02005H39.4187V9.86314H42.3814V10.5762H39.4187V12.8258H42.595V13.539H38.585V13.5355ZM45.6093 10.218L43.6767 7.31727H44.5827L46.1295 9.62887L47.6763 7.31727H48.5824L46.5877 10.3007L48.7133 13.5355H47.8072L46.0675 10.8897L44.2968 13.5355H43.3907L45.6093 10.218ZM51.7139 8.00972H50.6563V10.342H51.7139C52.1066 10.342 52.4132 10.2421 52.6303 10.0457C52.8404 9.84246 52.9472 9.54964 52.9472 9.17069C52.9472 8.80551 52.8404 8.51958 52.6303 8.31632C52.4132 8.11307 52.1066 8.00972 51.7139 8.00972ZM49.8226 13.5355V7.31727H51.7139C52.4132 7.31727 52.9403 7.4723 53.302 7.7858C53.6534 8.10618 53.8326 8.56436 53.8326 9.17069C53.8326 9.78734 53.6569 10.2524 53.302 10.5659C52.9438 10.8794 52.4132 11.0344 51.7139 11.0344H50.6563V13.539H49.8226V13.5355ZM54.9625 13.5355V7.31727H55.8066V12.8224H58.8382V13.5355H54.9625ZM61.9421 7.88915C61.3323 7.88915 60.8432 8.11652 60.478 8.57126C60.1266 9.026 59.9475 9.6461 59.9475 10.435C59.9475 11.2136 60.1232 11.8371 60.478 12.2988C60.8432 12.7535 61.3323 12.9809 61.9421 12.9809C62.5519 12.9809 63.0342 12.7535 63.3856 12.2988C63.7439 11.8371 63.9264 11.217 63.9264 10.435C63.9264 9.64955 63.7473 9.026 63.3856 8.57126C63.0342 8.11307 62.5519 7.88915 61.9421 7.88915ZM61.9421 7.20703C62.8103 7.20703 63.5061 7.49986 64.0298 8.08207C64.5534 8.66427 64.8118 9.44973 64.8118 10.4316C64.8118 11.4168 64.55 12.1989 64.0298 12.7811C63.5061 13.3633 62.8103 13.6561 61.9421 13.6561C61.0671 13.6561 60.3643 13.3633 59.8338 12.7811C59.3101 12.1989 59.0518 11.4134 59.0518 10.4316C59.0518 9.44629 59.3136 8.66427 59.8338 8.08207C60.3643 7.49641 61.0671 7.20703 61.9421 7.20703ZM69.0767 10.6141C69.2593 10.6762 69.435 10.8071 69.6073 11.0103C69.7761 11.2067 69.9483 11.4823 70.1275 11.8337L70.9818 13.5321H70.0758L69.2834 11.9336C69.0733 11.5202 68.8735 11.2446 68.684 11.1102C68.4876 10.9759 68.2224 10.907 67.8917 10.907H66.9753V13.5321H66.1312V7.31727H68.0329C68.746 7.31727 69.2765 7.46541 69.6314 7.76513C69.9759 8.05795 70.1516 8.5058 70.1516 9.10868C70.1516 9.50141 70.0586 9.82868 69.876 10.0871C69.6865 10.342 69.4247 10.5211 69.0767 10.6141ZM68.0295 8.00972H66.9718V10.218H68.0295C68.436 10.218 68.7426 10.1215 68.9458 9.93203C69.156 9.74256 69.2628 9.46696 69.2628 9.10868C69.2628 8.74351 69.156 8.46791 68.9458 8.28532C68.7426 8.10274 68.436 8.00972 68.0295 8.00972ZM72.0601 13.5355V7.31727H75.9874V8.02005H72.9041V9.86314H75.8668V10.5762H72.9041V12.8258H76.0701V13.539H72.0601V13.5355ZM80.1593 13.5355V7.31727H81.0034V13.5355H80.1593V13.5355ZM81.8198 8.02005V7.31727H87.0803V8.02005H84.8721V13.5355H84.0281V8.02005H81.8198ZM93.1263 7.88915C92.5166 7.88915 92.0308 8.11652 91.6725 8.57126C91.3143 9.026 91.1317 9.6461 91.1317 10.435C91.1317 11.2136 91.3108 11.8371 91.6725 12.2988C92.0308 12.7535 92.5166 12.9809 93.1263 12.9809C93.7361 12.9809 94.2218 12.7535 94.5801 12.2988C94.9315 11.8371 95.1107 11.217 95.1107 10.435C95.1107 9.64955 94.935 9.026 94.5801 8.57126C94.2218 8.11307 93.7361 7.88915 93.1263 7.88915ZM93.1263 7.20703C94.0014 7.20703 94.7007 7.49986 95.2244 8.08207C95.748 8.66427 96.0064 9.44973 96.0064 10.4316C96.0064 11.4168 95.7445 12.1989 95.2244 12.7811C94.7042 13.3633 94.0014 13.6561 93.1263 13.6561C92.2513 13.6561 91.552 13.3633 91.0283 12.7811C90.5047 12.1989 90.2463 11.4134 90.2463 10.4316C90.2463 9.44629 90.5081 8.66427 91.0283 8.08207C91.552 7.49641 92.2513 7.20703 93.1263 7.20703ZM97.3189 13.5355V7.31727H98.4489L101.208 12.5192V7.31727H102.032V13.5355H100.891L98.1319 8.33355V13.5355H97.3189V13.5355Z"
        fill="#585757"></path>
    <path
        d="M27.94 7.33789H16.8678C11.6451 7.33789 9.73315 9.23953 9.73315 14.4622V25.5344C9.73315 30.7571 11.6451 32.669 16.8678 32.669H27.94C33.1523 32.669 35.0643 30.7571 35.0643 25.5344V14.4622C35.0643 9.23953 33.1627 7.33789 27.94 7.33789Z"
        fill="#585757"></path>
    <path fill-rule="evenodd" clip-rule="evenodd"
        d="M20.5436 22.6239L20.237 23.306H19.5549L21.0087 19.9988H21.5978L23.0515 23.306H22.3488L22.0525 22.6239H20.5436ZM20.7847 22.0244H21.801L21.2911 20.8428L20.7847 22.0244ZM31.5745 19.9988H32.2463V23.306H31.5745V19.9988ZM28.9391 22.7065H30.7821V23.306H28.2776V19.9988H30.7098V20.6085H28.9391V21.2803H30.162V21.8901H28.9391V22.7065ZM27.034 19.9988H27.7368L26.5861 23.3163H26.0177L25.2632 21.1391L24.5088 23.3163H23.9576L22.7966 19.9988H23.5201L24.2539 22.2794L24.998 19.9988H25.5492L26.3036 22.2794L27.034 19.9988ZM18.5386 19.9988H19.2104V21.8728C19.2104 22.8202 18.6902 23.368 17.7738 23.368C16.8781 23.368 16.3579 22.8271 16.3579 21.8935V20.0022H17.0297V21.8763C17.0297 22.4344 17.2949 22.7306 17.7841 22.7306C18.2733 22.7306 18.5386 22.4344 18.5386 21.897V19.9988V19.9988ZM14.7525 19.9988H15.4243V23.3163H14.7525V21.9624H13.2367V23.3163H12.5649V19.9988H13.2367V21.332H14.7525V19.9988ZM22.4039 15.7855C20.0716 15.7855 18.1906 13.8942 18.1906 11.5723H18.7797C18.7797 13.5669 20.4092 15.1861 22.4039 15.1861C24.3985 15.1861 26.028 13.5669 26.028 11.5723H26.6171C26.6171 13.8908 24.7258 15.7855 22.4039 15.7855Z"
        fill="white"></path>
    <defs>
        <filter id="filter0_d_1911_49543" x="0" y="0" width="135.325" height="42"
            filterUnits="userSpaceOnUse" color-interpolation-filters="sRGB">
            <feFlood flood-opacity="0" result="BackgroundImageFix"></feFlood>
            <feColorMatrix in="SourceAlpha" type="matrix"
                values="0 0 0 0 0 0 0 0 0 0 0 0 0 0 0 0 0 0 127 0" result="hardAlpha"></feColorMatrix>
            <feOffset dy="1"></feOffset>
            <feGaussianBlur stdDeviation="0.5"></feGaussianBlur>
            <feColorMatrix type="matrix" values="0 0 0 0 0 0 0 0 0 0 0 0 0 0 0 0 0 0 0.06 0"></feColorMatrix>
            <feBlend mode="normal" in2="BackgroundImageFix" result="effect1_dropShadow_1911_49543"></feBlend>
            <feBlend mode="normal" in="SourceGraphic" in2="effect1_dropShadow_1911_49543"
                result="shape"></feBlend>
        </filter>
    </defs>
</svg>