<svg width="122" height="42" viewBox="0 0 122 42" fill="none" xmlns="http://www.w3.org/2000/svg">
    <g filter="url(#filter0_d_1534_40350)">
        <rect x="1" width="120" height="40" rx="8" fill="white"></rect>
        <path fill-rule="evenodd" clip-rule="evenodd"
            d="M27.7301 19.8959C27.7593 23.2045 30.625 24.2982 30.6593 24.3093C30.6421 24.3864 30.2105 25.8895 29.1356 27.4123C28.238 28.7552 27.2976 30.0682 25.8039 30.0905C24.3531 30.1247 23.8649 29.2374 22.2008 29.2374C20.5212 29.2374 20.0014 30.0682 18.6096 30.1247C17.187 30.177 16.1002 28.6927 15.17 27.3618C13.3106 24.6459 11.8632 19.7084 13.804 16.3484C14.7444 14.7006 16.459 13.6394 18.2919 13.6112C19.7162 13.5821 21.0377 14.573 21.913 14.573C22.7712 14.573 24.4053 13.3876 26.09 13.5649C26.7949 13.5855 28.8007 13.8433 30.0949 15.7301C29.9904 15.7926 27.7053 17.1355 27.7301 19.8959ZM24.9988 11.7775C24.2177 12.699 22.9681 13.4039 21.7511 13.3131C21.5918 12.0695 22.2084 10.7472 22.8988 9.94036C23.679 9.0248 25.0339 8.32335 26.1174 8.27539C26.2596 9.5678 25.7474 10.8414 24.9988 11.7775ZM38.3828 9.01359H40.3933C42.1676 9.01359 43.2164 10.1204 43.2164 12.0025C43.2164 13.8886 42.1717 14.9955 40.3933 14.9955H38.3828V9.01359ZM39.1323 9.68552V14.3243H40.347C41.7025 14.3243 42.457 13.4952 42.457 12.0111C42.457 10.5146 41.7067 9.68552 40.347 9.68552H39.1323ZM46.0993 15.0698C44.9055 15.0698 44.1012 14.2117 44.1012 12.8396C44.1012 11.4633 44.9055 10.6093 46.0993 10.6093C47.2891 10.6093 48.0933 11.4633 48.0933 12.8396C48.0933 14.2117 47.2891 15.0698 46.0993 15.0698ZM46.0993 14.4343C46.8621 14.4343 47.3596 13.8539 47.3596 12.8383C47.3596 11.8226 46.8621 11.2423 46.0993 11.2423C45.3366 11.2423 44.835 11.8226 44.835 12.8383C44.835 13.8539 45.3366 14.4343 46.0993 14.4343ZM54.5791 10.6836L53.3769 14.9949H52.6432L51.669 11.6578H51.6524L50.6824 14.9949H49.9487L48.7423 10.6836H49.4595L50.3217 14.1907H50.3383L51.3125 10.6836H52.0089L52.9873 14.1907H53.0038L53.8661 10.6836H54.5791ZM55.4604 14.9952V10.6839H56.1403V11.3721H56.1569C56.3973 10.9078 56.8574 10.6093 57.5248 10.6093C58.47 10.6093 59.0172 11.2187 59.0172 12.197V14.9952H58.2959V12.3255C58.2959 11.6291 57.9684 11.2477 57.3051 11.2477C56.6253 11.2477 56.1817 11.7286 56.1817 12.4582V14.9952H55.4604ZM60.242 14.9955V9.01359H60.9633V14.9955H60.242ZM64.0214 15.0698C62.8275 15.0698 62.0233 14.2117 62.0233 12.8396C62.0233 11.4633 62.8275 10.6093 64.0214 10.6093C65.2111 10.6093 66.0154 11.4633 66.0154 12.8396C66.0154 14.2117 65.2111 15.0698 64.0214 15.0698ZM64.0214 14.4343C64.7841 14.4343 65.2816 13.8539 65.2816 12.8383C65.2816 11.8226 64.7841 11.2423 64.0214 11.2423C63.2586 11.2423 62.757 11.8226 62.757 12.8383C62.757 13.8539 63.2586 14.4343 64.0214 14.4343ZM68.2704 15.0698C67.4123 15.0698 66.8361 14.5516 66.8361 13.7764C66.8361 13.0385 67.404 12.5742 68.3989 12.5162L69.6343 12.4457V12.0851C69.6343 11.5586 69.2861 11.2436 68.6891 11.2436C68.1336 11.2436 67.7854 11.5047 67.6942 11.9276H66.9978C67.0475 11.1814 67.6859 10.6093 68.7057 10.6093C69.7172 10.6093 70.3556 11.1565 70.3556 12.0146V14.9952H69.6716V14.2532H69.655C69.398 14.7465 68.8508 15.0698 68.2704 15.0698ZM68.4477 14.4548C69.1276 14.4548 69.6499 13.9781 69.6499 13.3563V13.0039L68.4975 13.0744C67.9171 13.1117 67.5854 13.3687 67.5854 13.775C67.5854 14.1854 67.9295 14.4548 68.4477 14.4548ZM73.1955 15.0701C72.0969 15.0701 71.3507 14.1912 71.3507 12.8398C71.3507 11.4884 72.0928 10.6096 73.1789 10.6096C73.7966 10.6096 74.294 10.9122 74.5511 11.3848H74.5676V9.01359H75.2889V14.9955H74.6008V14.2659H74.5884C74.3106 14.7633 73.8173 15.0701 73.1955 15.0701ZM73.3288 11.2423C72.566 11.2423 72.0851 11.8641 72.0851 12.8383C72.0851 13.8166 72.566 14.4343 73.3288 14.4343C74.0708 14.4343 74.5683 13.8042 74.5683 12.8383C74.5683 11.8765 74.0708 11.2423 73.3288 11.2423ZM80.3651 15.0698C79.1712 15.0698 78.367 14.2117 78.367 12.8396C78.367 11.4633 79.1712 10.6093 80.3651 10.6093C81.5549 10.6093 82.3591 11.4633 82.3591 12.8396C82.3591 14.2117 81.5549 15.0698 80.3651 15.0698ZM80.3651 14.4343C81.1278 14.4343 81.6253 13.8539 81.6253 12.8383C81.6253 11.8226 81.1278 11.2423 80.3651 11.2423C79.6023 11.2423 79.1008 11.8226 79.1008 12.8383C79.1008 13.8539 79.6023 14.4343 80.3651 14.4343ZM83.366 14.9952V10.6839H84.0458V11.3721H84.0624C84.3029 10.9078 84.763 10.6093 85.4304 10.6093C86.3756 10.6093 86.9228 11.2187 86.9228 12.197V14.9952H86.2015V12.3255C86.2015 11.6291 85.874 11.2477 85.2107 11.2477C84.5309 11.2477 84.0873 11.7286 84.0873 12.4582V14.9952H83.366ZM90.3687 9.64444H91.0901V10.6849H91.9274V11.2777H91.0901V13.8396C91.0901 14.2335 91.2559 14.4117 91.6248 14.4117C91.7077 14.4117 91.8735 14.3993 91.9233 14.391V14.9962C91.8362 15.017 91.6373 15.0294 91.4673 15.0294C90.6755 15.0294 90.3687 14.706 90.3687 13.877V11.2777H89.7262V10.6849H90.3687V9.64444ZM93.0228 14.9955V9.01359H93.7441V11.3723H93.7607C94.0011 10.8915 94.4737 10.6096 95.1287 10.6096C96.0739 10.6096 96.646 11.248 96.646 12.2097V14.9955H95.9246V12.3424C95.9246 11.6584 95.5806 11.248 94.9049 11.248C94.1877 11.248 93.7441 11.7371 93.7441 12.4833V14.9955H93.0228ZM100.704 13.7598H101.413C101.288 14.5143 100.559 15.0698 99.6178 15.0698C98.3824 15.0698 97.6321 14.2117 97.6321 12.8561C97.6321 11.5172 98.3949 10.6093 99.5846 10.6093C100.75 10.6093 101.467 11.455 101.467 12.7608V13.0344H98.3742V13.0758C98.3742 13.9008 98.8592 14.4438 99.6344 14.4438C100.182 14.4438 100.584 14.1661 100.704 13.7598ZM99.5755 11.2344C98.8998 11.2344 98.4272 11.7525 98.3816 12.4697H100.724C100.707 11.7484 100.255 11.2344 99.5755 11.2344ZM45.3719 29.6583L44.3272 26.5718H39.9745L38.9299 29.6583H37.0859L41.2091 18.2383H43.1243L47.2475 29.6583H45.3719ZM42.1299 20.1387L40.4284 25.1483H43.8789L42.1774 20.1387H42.1299ZM53.0314 21.1992C55.1444 21.1992 56.5373 22.8611 56.5373 25.4965C56.5373 28.1319 55.1523 29.8017 53.063 29.8017C51.868 29.8017 50.9183 29.2161 50.4435 28.2901H50.4039V32.4133H48.6945V21.3337H50.3485V22.7662H50.3802C50.8708 21.8086 51.8284 21.1992 53.0314 21.1992ZM52.5662 28.3545C53.9195 28.3545 54.7663 27.2465 54.7663 25.4975C54.7663 23.7564 53.9195 22.6405 52.5662 22.6405C51.2604 22.6405 50.382 23.7802 50.382 25.4975C50.382 27.2307 51.2525 28.3545 52.5662 28.3545ZM62.5623 21.1992C64.6754 21.1992 66.0682 22.8611 66.0682 25.4965C66.0682 28.1319 64.6833 29.8017 62.594 29.8017C61.399 29.8017 60.4493 29.2161 59.9745 28.2901H59.9349V32.4133H58.2255V21.3337H59.8795V22.7662H59.9111C60.4018 21.8086 61.3594 21.1992 62.5623 21.1992ZM62.1133 28.3545C63.4666 28.3545 64.3134 27.2465 64.3134 25.4975C64.3134 23.7564 63.4666 22.6405 62.1133 22.6405C60.8075 22.6405 59.929 23.7802 59.929 25.4975C59.929 27.2307 60.7996 28.3545 62.1133 28.3545ZM71.1479 26.4792H72.8969C73.0236 27.6109 74.1236 28.3548 75.6273 28.3548C77.0677 28.3548 78.1044 27.6109 78.1044 26.59C78.1044 25.7036 77.4792 25.1733 75.9993 24.8093L74.5193 24.4532C72.4221 23.9467 71.4486 22.9653 71.4486 21.3746C71.4486 19.404 73.166 18.0507 75.6035 18.0507C78.0174 18.0507 79.6714 19.404 79.7268 21.3746H78.0015C77.8986 20.235 76.9569 19.5465 75.5798 19.5465C74.2028 19.5465 73.261 20.2429 73.261 21.2559C73.261 22.0631 73.8624 22.538 75.3345 22.902L76.5928 23.2107C78.9354 23.7646 79.9088 24.7064 79.9088 26.3763C79.9088 28.5131 78.2073 29.8505 75.5007 29.8505C72.9682 29.8505 71.2587 28.5447 71.1479 26.4792ZM82.1717 19.3632H83.889V21.3338H85.4718V22.6871H83.889V27.2773C83.889 27.9974 84.2056 28.3219 84.902 28.3219C85.0761 28.3219 85.3531 28.3061 85.4639 28.2824V29.6357C85.2739 29.6831 84.8941 29.7148 84.5142 29.7148C82.8285 29.7148 82.1717 29.0738 82.1717 27.4672V22.6871H80.9609V21.3338H82.1717V19.3632ZM90.6289 29.8177C88.2468 29.8177 86.6798 28.1795 86.6798 25.4967C86.6798 22.8217 88.2547 21.1835 90.6289 21.1835C93.0031 21.1835 94.578 22.8217 94.578 25.4967C94.578 28.1795 93.011 29.8177 90.6289 29.8177ZM90.6377 28.4087C91.9831 28.4087 92.8458 27.3482 92.8458 25.4963C92.8458 23.6523 91.9752 22.5919 90.6377 22.5919C89.3002 22.5919 88.4296 23.6523 88.4296 25.4963C88.4296 27.3482 89.3002 28.4087 90.6377 28.4087ZM96.2888 29.6593V21.3337H97.9191V22.7503H97.9587C98.2357 21.7769 98.9796 21.1992 99.961 21.1992C100.206 21.1992 100.42 21.2388 100.547 21.2625V22.8532C100.412 22.7978 100.111 22.7582 99.7789 22.7582C98.6789 22.7582 97.9983 23.4942 97.9983 24.6734V29.6593H96.2888ZM107.505 27.214H109.127C108.89 28.7335 107.45 29.8177 105.542 29.8177C103.097 29.8177 101.617 28.1637 101.617 25.5362C101.617 22.9246 103.121 21.1835 105.471 21.1835C107.782 21.1835 109.222 22.8138 109.222 25.3384V25.924H103.342V26.0269C103.342 27.4752 104.213 28.4328 105.582 28.4328C106.555 28.4328 107.275 27.9421 107.505 27.214ZM105.487 22.5605C104.292 22.5605 103.454 23.4707 103.366 24.729H107.529C107.49 23.4548 106.682 22.5605 105.487 22.5605Z"
            fill="#585757"></path>
        <rect x="1.5" y="0.5" width="119" height="39" rx="7.5" stroke="#E8E8E8"></rect>
    </g>
    <defs>
        <filter id="filter0_d_1534_40350" x="0" y="0" width="122" height="42"
            filterUnits="userSpaceOnUse" color-interpolation-filters="sRGB">
            <feFlood flood-opacity="0" result="BackgroundImageFix"></feFlood>
            <feColorMatrix in="SourceAlpha" type="matrix"
                values="0 0 0 0 0 0 0 0 0 0 0 0 0 0 0 0 0 0 127 0" result="hardAlpha"></feColorMatrix>
            <feOffset dy="1"></feOffset>
            <feGaussianBlur stdDeviation="0.5"></feGaussianBlur>
            <feColorMatrix type="matrix" values="0 0 0 0 0 0 0 0 0 0 0 0 0 0 0 0 0 0 0.06 0"></feColorMatrix>
            <feBlend mode="normal" in2="BackgroundImageFix" result="effect1_dropShadow_1534_40350"></feBlend>
            <feBlend mode="normal" in="SourceGraphic" in2="effect1_dropShadow_1534_40350"
                result="shape"></feBlend>
        </filter>
    </defs>
</svg>