<svg width="122" height="42" viewBox="0 0 122 42" fill="none" xmlns="http://www.w3.org/2000/svg">
    <g filter="url(#filter0_d_1534_40351)">
        <rect x="1" width="120" height="40" rx="8" fill="white"></rect>
        <path fill-rule="evenodd" clip-rule="evenodd"
            d="M105.123 27.8761L102.101 21H103.879L106.012 25.8532L108.145 21H109.923L105.209 31.7248H103.432L105.123 27.8761ZM82.9291 17.2852H86.8666C88.7752 17.2852 90.3368 18.8468 90.3368 20.7554C90.3368 22.664 88.7752 24.2256 86.8666 24.2256H84.5569V28.1785H82.9291V17.2853V17.2852ZM44.3074 22.1364L44.3073 22.1359C44.3073 22.1359 44.4028 22.5163 44.4028 23.1741C44.4028 26.2923 42.1495 28.4011 39.0713 28.4011C35.5713 28.4011 33.1941 25.5557 33.1941 22.6375C33.1941 19.6594 35.7214 16.9023 38.988 16.9024C41.5535 16.9024 42.9601 18.4682 42.9601 18.4682L41.8641 19.6031C41.8641 19.6031 40.8186 18.4718 39.044 18.4718C36.7442 18.4718 34.9098 20.2963 34.9098 22.6654C34.9098 25.0972 36.8341 26.8323 39.0393 26.8323C40.7628 26.8323 42.5888 25.8963 42.7737 23.7016H39.033V22.1364H44.3074ZM48.785 21.0038C50.564 21.0038 52.4932 22.2644 52.4932 24.7122C52.4932 26.8478 50.8347 28.3952 48.8102 28.3952C46.5739 28.3952 45.0696 26.6718 45.0696 24.6693C45.0696 22.6958 46.6206 21.0038 48.785 21.0038ZM56.9563 21.0038C58.7355 21.0038 60.6646 22.2644 60.6646 24.7122C60.6646 26.8478 59.0061 28.3952 56.9817 28.3952C54.7453 28.3952 53.2409 26.6718 53.2409 24.6693C53.2409 22.6958 54.792 21.0038 56.9563 21.0038ZM48.8096 22.4551V22.4552C47.6137 22.4552 46.6946 23.4113 46.6946 24.6914C46.6946 25.9997 47.6252 26.9443 48.8047 26.9443C49.8781 26.9443 50.8825 26.0593 50.8825 24.7022C50.8825 23.3157 49.874 22.4551 48.8096 22.4551ZM56.9811 22.4551V22.4552C55.7851 22.4552 54.8662 23.4113 54.8662 24.6914C54.8662 25.9997 55.7967 26.9443 56.9761 26.9443C58.0496 26.9443 59.054 26.0593 59.054 24.7022C59.054 23.3157 58.0453 22.4551 56.9811 22.4551ZM64.9618 21.0078V21.0079C65.8267 21.0079 66.4782 21.3425 66.9546 21.856V21.23H68.5041V27.8709C68.5041 30.4801 66.9987 31.7239 65.0235 31.7239C63.2178 31.7239 62.2035 30.6137 61.6995 29.5476L63.1199 28.9538C63.3167 29.4301 63.8829 30.2699 65.0118 30.2699C66.1803 30.2699 66.9545 29.506 66.9545 28.2309V27.5021C66.541 27.982 65.981 28.4002 64.9276 28.4002C63.2241 28.4002 61.4138 26.9251 61.4138 24.7005C61.4138 22.7477 62.9755 21.0078 64.9618 21.0078ZM65.1048 22.4569C64.0623 22.4569 63.0389 23.3037 63.0389 24.7225C63.0389 26.088 64.0244 26.9479 65.0833 26.9479C66.0809 26.9479 67.0789 26.1524 67.0789 24.7088C67.0789 23.2886 66.0788 22.4569 65.1048 22.4569ZM75.7051 20.9981L75.7052 20.9984C77.1832 20.9984 78.2998 21.9839 78.7786 23.164L79.0359 23.7666L74.0803 25.8228C74.3763 26.3738 74.8541 26.9428 75.8929 26.9429C76.8178 26.9429 77.3721 26.44 77.7037 25.9254L78.9812 26.7755C78.4084 27.542 77.4488 28.3974 75.8851 28.3974C74.0116 28.3974 72.258 27.0169 72.258 24.6891C72.258 22.4891 73.8313 20.9981 75.7051 20.9981ZM75.7761 22.4198H75.7759C74.7061 22.4198 73.6915 23.5215 73.8341 24.5924L77.1436 23.2092C76.9372 22.7787 76.4513 22.4198 75.7761 22.4198ZM69.7415 28.1783V17.2851H71.3693V28.1783H69.7415ZM91.5693 28.1783V17.2851H93.1971V28.1783H91.5693ZM84.555 18.9121V22.597H86.8648C87.8751 22.597 88.7075 21.7648 88.7075 20.7546C88.7075 19.7443 87.8751 18.9121 86.8648 18.9121H84.555ZM99.8584 28.1776V27.2983C99.4833 27.7446 99.0255 28.0901 98.444 28.2486C97.411 28.5301 96.1538 28.4191 95.388 27.5953C94.8966 27.0665 94.7395 26.1988 94.8315 25.4949C95.0019 24.1924 96.0741 23.3971 97.3264 23.2704C98.1287 23.1892 99.0068 23.3453 99.8196 23.5606C99.6418 21.7847 96.9372 21.4035 95.9894 23.0605L94.6795 22.1816C96.618 19.2687 101.741 20.219 101.486 24.2597V28.1776H99.8584ZM99.8556 25.0285C99.4001 24.881 98.9811 24.7619 98.5008 24.704C95.7037 24.2834 96.172 27.3416 98.0542 26.8286C98.9451 26.5859 99.6473 25.9343 99.8556 25.0285ZM38.5803 10.6573V10.6572C38.5803 10.6572 38.6238 10.8303 38.6238 11.1297C38.6238 12.5487 37.5983 13.5082 36.1974 13.5082C34.6047 13.5082 33.5229 12.2134 33.5229 10.8853C33.5229 9.53012 34.6729 8.27539 36.1595 8.27539C37.327 8.27539 37.9672 8.988 37.9672 8.988L37.4685 9.50446C37.4685 9.50446 36.9927 8.98974 36.185 8.98974C35.1384 8.98974 34.3036 9.82 34.3036 10.8981C34.3036 12.0049 35.1793 12.7945 36.1829 12.7945C36.9673 12.7945 37.7982 12.3685 37.8824 11.3696H36.18V10.6573H38.5803ZM48.3976 13.4066V8.44927H49.1383V13.4066H48.3976ZM44.2387 13.4066V9.18998H43.0227V8.44927H46.1954V9.18998H44.9795V13.4066H44.2387ZM39.3983 13.4066V8.44927H42.2392V9.18998H40.1392V10.5576H41.9864V11.2983H40.1392V12.6658H42.2392V13.4066H39.3983ZM51.6833 13.4066H50.9426V9.18998H49.7266V8.44927H52.8992V9.18998H51.6833V13.4066ZM57.4565 8.27539C58.9432 8.27539 60.0933 9.53 60.0933 10.8853C60.0933 12.2028 59.0286 13.4874 57.4565 13.5078C55.8845 13.4874 54.8198 12.2028 54.8198 10.8853C54.8198 9.53 55.9699 8.27539 57.4565 8.27539ZM57.442 12.7943C58.4358 12.7821 59.298 11.9965 59.298 10.8983C59.298 9.82903 58.4768 9.00353 57.442 8.99018C56.4073 9.00353 55.586 9.82903 55.586 10.8983C55.586 11.9965 56.4482 12.7821 57.442 12.7943ZM60.8201 13.4066V8.44927H61.5609L63.9388 12.0584V8.44927H64.6796V13.4066H63.9401L61.5609 9.79563V13.4066H60.8201ZM13.2932 14.4571L21.6629 22.8142L13.3334 31.2446C13.0903 31.0902 12.96 30.7557 12.9578 30.3237C12.9537 29.4951 12.8873 16.3476 12.8823 15.361C12.88 14.8878 13.0521 14.5992 13.2932 14.4571ZM24.4301 20.0217L22.0163 22.4645L13.8974 14.3575C14.0204 14.3736 14.1438 14.4098 14.2525 14.4691L24.4301 20.0217ZM24.869 25.3287L22.3513 22.8148L24.8664 20.2694L28.3301 22.1588C29.1833 22.6241 28.7469 23.2061 28.3301 23.4342L24.869 25.3287ZM14.0233 31.2488L22.0115 23.1642L24.4249 25.574L14.2452 31.1455C14.1684 31.1884 14.0943 31.2221 14.0233 31.2488Z"
            fill="#585757"></path>
        <rect x="1.5" y="0.5" width="119" height="39" rx="7.5" stroke="#E8E8E8"></rect>
    </g>
    <defs>
        <filter id="filter0_d_1534_40351" x="0" y="0" width="122" height="42"
            filterUnits="userSpaceOnUse" color-interpolation-filters="sRGB">
            <feFlood flood-opacity="0" result="BackgroundImageFix"></feFlood>
            <feColorMatrix in="SourceAlpha" type="matrix"
                values="0 0 0 0 0 0 0 0 0 0 0 0 0 0 0 0 0 0 127 0" result="hardAlpha"></feColorMatrix>
            <feOffset dy="1"></feOffset>
            <feGaussianBlur stdDeviation="0.5"></feGaussianBlur>
            <feColorMatrix type="matrix" values="0 0 0 0 0 0 0 0 0 0 0 0 0 0 0 0 0 0 0.06 0"></feColorMatrix>
            <feBlend mode="normal" in2="BackgroundImageFix" result="effect1_dropShadow_1534_40351"></feBlend>
            <feBlend mode="normal" in="SourceGraphic" in2="effect1_dropShadow_1534_40351"
                result="shape"></feBlend>
        </filter>
    </defs>
</svg>