<svg width="20" height="20" viewBox="0 0 20 20" fill="none" xmlns="http://www.w3.org/2000/svg">
    <rect width="20" height="20" rx="3" fill="#61B9F7"></rect>
    <path fill-rule="evenodd" clip-rule="evenodd"
        d="M15 6.96208C14.6321 7.12542 14.2367 7.23542 13.8217 7.285C14.2454 7.03125 14.5708 6.62917 14.7238 6.15C14.3275 6.385 13.8883 6.55583 13.4208 6.64792C13.0471 6.24917 12.5133 6 11.9233 6C10.5988 6 9.62542 7.23583 9.92458 8.51875C8.22 8.43333 6.70833 7.61667 5.69625 6.37542C5.15875 7.2975 5.4175 8.50375 6.33083 9.11458C5.995 9.10375 5.67833 9.01167 5.40208 8.85792C5.37958 9.80833 6.06083 10.6975 7.0475 10.8954C6.75875 10.9738 6.4425 10.9921 6.12083 10.9304C6.38167 11.7454 7.13917 12.3383 8.0375 12.355C7.175 13.0312 6.08833 13.3333 5 13.205C5.90792 13.7871 6.98667 14.1267 8.145 14.1267C11.9542 14.1267 14.1062 10.9096 13.9762 8.02417C14.3771 7.73458 14.725 7.37333 15 6.96208Z"
        fill="white"></path>
</svg>